<svg xmlns="http://www.w3.org/2000/svg" width="16" height="18" viewBox="0 0 16 18">
    <g fill="none" fill-rule="evenodd">
        <path d="M-2 0h20v20H-2z"/>
        <path fill="#000" fill-rule="nonzero" d="M13.833 2.5H10.35A2.509 2.509 0 0 0 8 .833c-1.083 0-2 .7-2.35 1.667H2.167C1.25 2.5.5 3.25.5 4.167v11.666c0 .917.75 1.667 1.667 1.667h11.666c.917 0 1.667-.75 1.667-1.667V4.167c0-.917-.75-1.667-1.667-1.667zM8 2.5c.458 0 .833.375.833.833A.836.836 0 0 1 8 4.167a.836.836 0 0 1-.833-.834c0-.458.375-.833.833-.833zm0 3.333c1.383 0 2.5 1.117 2.5 2.5 0 1.384-1.117 2.5-2.5 2.5a2.497 2.497 0 0 1-2.5-2.5c0-1.383 1.117-2.5 2.5-2.5zm5 10H3v-1.166C3 13 6.333 12.083 8 12.083c1.667 0 5 .917 5 2.584v1.166z"/>
    </g>
</svg>
