<svg xmlns="http://www.w3.org/2000/svg" width="18" height="22" viewBox="0 0 18 22">
    <path fill="#FF2D55" fill-rule="evenodd" d="M16.615 19.579V2.42c0-.577-.472-1.046-1.053-1.046H2.438c-.58 0-1.053.47-1.053 1.046V19.58c0 .577.472 1.046 1.053 1.046h13.124c.58 0 1.053-.47 1.053-1.046zM15.562 0A2.433 2.433 0 0 1 18 2.421V19.58A2.433 2.433 0 0 1 15.562 22H2.438A2.433 2.433 0 0 1 0 19.579V2.42A2.433 2.433 0 0 1 2.438 0h13.124zM11 16H3.462a.69.69 0 0 0-.693.687c0 .38.31.688.693.688H11a.69.69 0 0 0 .692-.688A.69.69 0 0 0 11 16zm-3.462-3H3.462a.69.69 0 0 0-.693.687c0 .38.31.688.693.688h4.076a.69.69 0 0 0 .692-.688.69.69 0 0 0-.692-.687zm6.693-6.326H3.769a1 1 0 0 0-1 1v2a1 1 0 0 0 1 1h10.462a1 1 0 0 0 1-1v-2a1 1 0 0 0-1-1zM11 2.98H7.462a.69.69 0 0 0-.693.688c0 .38.31.687.693.687H11a.69.69 0 0 0 .692-.687A.69.69 0 0 0 11 2.98z"/>
</svg>
