<svg xmlns="http://www.w3.org/2000/svg" width="24" height="24" viewBox="0 0 24 24">
    <path fill="#15162F" fill-rule="evenodd" d="M19.615 20.579V3.42c0-.577-.472-1.046-1.053-1.046H5.438c-.58 0-1.053.47-1.053 1.046V20.58c0 .577.472 1.046 1.053 1.046h13.124c.58 0 1.053-.47 1.053-1.046zM18.562 1A2.433 2.433 0 0 1 21 3.421V20.58A2.433 2.433 0 0 1 18.562 23H5.438A2.433 2.433 0 0 1 3 20.579V3.42A2.433 2.433 0 0 1 5.438 1h13.124zM14 17H6.462a.69.69 0 0 0-.693.687c0 .38.31.688.693.688H14a.69.69 0 0 0 .692-.688A.69.69 0 0 0 14 17zm-3.462-3H6.462a.69.69 0 0 0-.693.687c0 .38.31.688.693.688h4.076a.69.69 0 0 0 .692-.688.69.69 0 0 0-.692-.687zm6.693-6.326H6.769a1 1 0 0 0-1 1v2a1 1 0 0 0 1 1h10.462a1 1 0 0 0 1-1v-2a1 1 0 0 0-1-1zM14 3.98h-3.538a.69.69 0 0 0-.693.688c0 .38.31.687.693.687H14a.69.69 0 0 0 .692-.687A.69.69 0 0 0 14 3.98z"/>
</svg>
