<svg xmlns="http://www.w3.org/2000/svg" width="20" height="20" viewBox="0 0 20 20">
    <g fill="none" fill-rule="evenodd" style="mix-blend-mode:multiply">
        <path d="M-2-2h24v24H-2V-2zm0 0h24v24H-2V-2z"/>
        <path fill="#FF2D55" fill-rule="nonzero" d="M10 0C4.48 0 0 4.48 0 10s4.48 10 10 10 10-4.48 10-10S15.52 0 10 0zm0 18c-4.42 0-8-3.58-8-8s3.58-8 8-8 8 3.58 8 8-3.58 8-8 8z"/>
        <path fill="#FF2D55" fill-rule="nonzero" d="M9 14l-3-2.972L7.057 9.98 9 11.897 13.943 7 15 8.055z"/>
    </g>
</svg>
