<svg xmlns="http://www.w3.org/2000/svg" width="24" height="24" viewBox="0 0 24 24">
    <g fill="none" fill-rule="evenodd" style="mix-blend-mode:multiply">
        <path d="M0 0h24v24H0V0zm0 0h24v24H0V0z"/>
        <path fill="#15162F" fill-rule="nonzero" d="M12 2C6.48 2 2 6.48 2 12s4.48 10 10 10 10-4.48 10-10S17.52 2 12 2zm0 18c-4.42 0-8-3.58-8-8s3.58-8 8-8 8 3.58 8 8-3.58 8-8 8z"/>
        <path fill="#15162F" fill-rule="nonzero" d="M11 16l-3-2.972 1.057-1.048L11 13.897 15.943 9 17 10.055z"/>
    </g>
</svg>
