<svg xmlns="http://www.w3.org/2000/svg" width="20" height="20" viewBox="0 0 20 20">
    <path fill="#FFFFFE" fill-rule="evenodd" d="M6.869.548c-2.488.835-4.607 2.658-5.781 4.963a9.814 9.814 0 0 0-.001 8.98 10.118 10.118 0 0 0 2.772 3.338c1.09.852 2.36 1.481 3.708 1.833 1.7.446 3.51.436 5.22.055 1.547-.35 3.01-1.073 4.178-2.13 1.235-1.112 2.116-2.577 2.582-4.152.509-1.717.58-3.55.26-5.309h-9.603c0 1.301-.001 2.602.001 3.903h5.561a4.692 4.692 0 0 1-2.043 3.089 5.903 5.903 0 0 1-2.247.869c-.803.134-1.634.152-2.435-.007a6.058 6.058 0 0 1-2.272-.962 6.226 6.226 0 0 1-2.339-3.07 5.941 5.941 0 0 1 .002-3.895 6.187 6.187 0 0 1 1.481-2.357 6.11 6.11 0 0 1 3.048-1.66 6.162 6.162 0 0 1 2.996.12c.822.245 1.58.686 2.2 1.267.627-.611 1.252-1.226 1.878-1.838.328-.33.673-.645.991-.984A9.911 9.911 0 0 0 13.743.607 10.519 10.519 0 0 0 6.869.548"/>
</svg>
