<svg xmlns="http://www.w3.org/2000/svg" width="24" height="24" viewBox="0 0 24 24">
    <g fill="none" fill-rule="evenodd" transform="translate(2 2)">
        <circle cx="10" cy="10" r="11" stroke="#FFF" stroke-width="2"/>
        <path fill="#FFF" d="M8.26 3.544a2.262 2.262 0 0 1 3.247 0 2.38 2.38 0 0 1 0 3.316l-3.89 3.973c-.898.916-.93 2.445-.034 3.36 1.605 1.427 3.091-.17 3.448-.533l2.725-2.783a2.264 2.264 0 0 1 3.248 0 2.381 2.381 0 0 1 0 3.317l-1.638 1.672c-.736.751-.847 1.9-.37 2.794a9.963 9.963 0 0 1-5 1.34C4.475 20 0 15.532 0 10.021c0-.685.07-1.355.2-2.002a2.262 2.262 0 0 0 3.108.58l.485-.494zm7.998 1.186c1.188 0 2.15.96 2.15 2.147a2.149 2.149 0 0 1-2.15 2.146 2.149 2.149 0 0 1-2.15-2.146c0-1.186.963-2.147 2.15-2.147z"/>
    </g>
</svg>
