<svg xmlns="http://www.w3.org/2000/svg" width="24" height="24" viewBox="0 0 24 24">
    <g fill="#8A8A8F" fill-rule="nonzero">
        <path d="M12 23.75c6.49 0 11.75-5.26 11.75-11.75S18.49.25 12 .25.25 5.51.25 12 5.51 23.75 12 23.75zm0-1.5C6.34 22.25 1.75 17.66 1.75 12S6.34 1.75 12 1.75 22.25 6.34 22.25 12 17.66 22.25 12 22.25z"/>
        <path d="M19.75 12A7.75 7.75 0 1 1 10 4.51v1.567a6.25 6.25 0 1 0 4 0V4.511c3.311.882 5.75 3.9 5.75 7.489z"/>
        <path d="M12.75 3.5h-1.5v9h1.5z"/>
    </g>
</svg>
