<svg xmlns="http://www.w3.org/2000/svg" xmlns:xlink="http://www.w3.org/1999/xlink" width="170" height="170" viewBox="0 0 170 170">
    <defs>
        <path id="a" d="M168 82.998C168 128.837 130.388 166 83.995 166 37.602 166 0 128.837 0 82.998 0 37.158 37.602 0 83.995 0 130.388 0 168 37.158 168 82.998"/>
    </defs>
    <g fill="none" fill-rule="evenodd" transform="translate(2 2)">
        <mask id="b" fill="#fff">
            <use xlink:href="#a"/>
        </mask>
        <use fill="#EA3434" xlink:href="#a"/>
        <path fill="#F9D026" d="M68.61 29.87c7.447-7.634 19.53-7.634 26.976 0 7.451 7.628 7.451 19.998 0 27.632L63.265 90.61c-7.451 7.633-7.723 20.376-.276 28.004 13.335 11.884 25.68-1.422 28.638-4.446l22.635-23.19c7.447-7.63 19.529-7.63 26.98 0 7.447 7.632 7.447 20.008 0 27.636l-13.607 13.935c-6.112 6.26-7.032 15.835-3.063 23.286A82.553 82.553 0 0 1 83.032 167C37.171 167 0 129.769 0 83.846c0-5.71.576-11.293 1.668-16.684.586.802 1.205 1.57 1.9 2.28 6.499 6.656 16.518 7.505 23.917 2.548 0 0 2.682-2.743 4.021-4.117zm66.44 9.88c9.866 0 17.866 8.01 17.866 17.89 0 9.875-8 17.885-17.866 17.885-9.863 0-17.862-8.01-17.862-17.885 0-9.88 8-17.89 17.862-17.89z" mask="url(#b)"/>
    </g>
</svg>
