<svg xmlns="http://www.w3.org/2000/svg" width="16" height="19" viewBox="0 0 16 19">
    <g fill="none" fill-rule="evenodd">
        <path d="M-2 0h20v20H-2z"/>
        <path fill="#15162F" fill-rule="nonzero" d="M10.5.833h-5V2.5h5V.833zM7.167 11.667h1.666v-5H7.167v5zm6.691-5.509l1.184-1.183A9.207 9.207 0 0 0 13.867 3.8l-1.184 1.183A7.468 7.468 0 0 0 8 3.333a7.5 7.5 0 0 0-7.5 7.5c0 4.142 3.35 7.5 7.5 7.5a7.495 7.495 0 0 0 5.858-12.175zM8 16.667a5.83 5.83 0 0 1-5.833-5.834A5.83 5.83 0 0 1 8 5a5.83 5.83 0 0 1 5.833 5.833A5.83 5.83 0 0 1 8 16.667z"/>
    </g>
</svg>
